<svg version="1.1" viewBox="0.0 0.0 960.0 540.0" fill="none" stroke="none" stroke-linecap="square" stroke-miterlimit="10" xmlns:xlink="http://www.w3.org/1999/xlink" xmlns="http://www.w3.org/2000/svg"><clipPath id="p.0"><path d="m0 0l960.0 0l0 540.0l-960.0 0l0 -540.0z" clip-rule="nonzero"/></clipPath><g clip-path="url(#p.0)"><path fill="#ffffff" d="m0 0l960.0 0l0 540.0l-960.0 0z" fill-rule="evenodd"/><path fill="#a4c2f4" d="m480.0 231.1181l-80.409454 0c-44.408905 0 -80.409454 17.40802 -80.409454 38.881897c0 21.473877 36.00055 38.881897 80.409454 38.881897l80.409454 0z" fill-rule="evenodd"/><path stroke="#000000" stroke-width="1.0" stroke-linejoin="round" stroke-linecap="butt" d="m480.0 231.1181l-80.409454 0c-44.408905 0 -80.409454 17.40802 -80.409454 38.881897c0 21.473877 36.00055 38.881897 80.409454 38.881897l80.409454 0z" fill-rule="evenodd"/><path fill="#a4c2f4" d="m486.68765 231.1181l15.937012 0l0 77.763794l-15.937012 0z" fill-rule="evenodd"/><path stroke="#000000" stroke-width="1.0" stroke-linejoin="round" stroke-linecap="butt" d="m486.68765 231.1181l15.937012 0l0 77.763794l-15.937012 0z" fill-rule="evenodd"/></g></svg>